<?xml version="1.0" encoding="UTF-8"?>
<svg width="32" height="32" viewBox="0 0 32 32" fill="none" xmlns="http://www.w3.org/2000/svg">
    <defs>
        <linearGradient id="gradient" x1="0%" y1="0%" x2="100%" y2="100%">
            <stop offset="0%" style="stop-color:#0070F5"/>
            <stop offset="100%" style="stop-color:#5E5CE6"/>
        </linearGradient>
        <style>
            @font-face {
                font-family: 'SF Pro Display';
                font-weight: bold;
                src: local('SF Pro Display Bold');
            }
        </style>
    </defs>
    <rect width="32" height="32" rx="8" fill="url(#gradient)"/>
    <path d="M13.5 23h4.2c1.8 0 3.2-0.4 4.2-1.2 1-0.8 1.5-2 1.5-3.4 0-1.1-0.3-2-0.9-2.7-0.6-0.7-1.4-1.1-2.4-1.3v-0.1c0.8-0.2 1.5-0.6 2-1.2 0.5-0.6 0.7-1.4 0.7-2.3 0-1.3-0.5-2.3-1.4-3-0.9-0.7-2.2-1.1-3.8-1.1h-4.1V23zm2.2-9.8V9.7h1.8c0.9 0 1.6 0.2 2.1 0.5 0.5 0.3 0.7 0.8 0.7 1.5 0 0.7-0.2 1.2-0.7 1.6-0.5 0.4-1.2 0.5-2.1 0.5h-1.8zm0 1.8h2c1 0 1.8 0.2 2.3 0.6 0.5 0.4 0.8 1 0.8 1.8 0 0.8-0.3 1.4-0.8 1.8-0.5 0.4-1.3 0.6-2.4 0.6h-1.9v-4.8z" fill="white"/>
</svg> 